# xmcd
#
# Track frame offsets:
#	150
#	20305
#	36845
#	52652
#	70430
#	88115
#	105695
#	120865
#	134360
#	146520
#	161655
#	176315
#	190217
#	206975
#	223117
#	236665
#	248370
#	257990
#	267985
#	276517
#	287590
#	297347
#	309057
#	319782
#	329190
#	341407
#	351735
#
# Disc length: 4808 seconds
#
# Revision: 1
# Processed by: cddbd v1.5.2PL0 Copyright (c) Steve Scherf et al.
# Submitted via: SynApp - FreeCDDB Version: 2.3
#
DISCID=a712c61b
DTITLE=Johnny Cash - American IV: The Man Comes Around
DYEAR=2002
DGENRE=Country
TTITLE0=The Man Comes Around
TTITLE1=Hurt
TTITLE2=Give My Love To Rose
TTITLE3=Bridge Over Troubled Water
TTITLE4=I Hung My Head
TTITLE5=First Time Ever I Saw Your Face
TTITLE6=Personal Jesus
TTITLE7=In My Life
TTITLE8=Sam Hall
TTITLE9=Danny Boy
TTITLE10=Desperado
TTITLE11=I'm So Lonesome I Could Cry
TTITLE12=Tear Stained Letter
TTITLE13=Streets Of Laredo
TTITLE14=We'll Meet Again
TTITLE15=There Was A Song" (1960) - Seasons Of My Heart
TTITLE16=There Was A Song" (1960) - I Feel Better All Over
TTITLE17=There Was A Song" (1960) - I Couldn't Keep From Crying
TTITLE18=There Was A Song" (1960) - Time Changes Everything
TTITLE19=There Was A Song" (1960) - My Shoes Keep Walking Back To You
TTITLE20=There Was A Song" (1960) - I'd Just Be A Fool Enough (To Fall)
TTITLE21=There Was A Song" (1960) - Transfusion Blues
TTITLE22=There Was A Song" (1960) - Why Do You Punish Me (For Loving You)
TTITLE23=There Was A Song" (1960) - I Will Miss You When You Go
TTITLE24=There Was A Song" (1960) - I'm So Lonesome I Could Cry
TTITLE25=There Was A Song" (1960) - Just One More
TTITLE26=There Was A Song" (1960) - Honky-Tonk Girl
EXTD=
EXTT0=
EXTT1=
EXTT2=
EXTT3=
EXTT4=
EXTT5=
EXTT6=
EXTT7=
EXTT8=
EXTT9=
EXTT10=
EXTT11=
EXTT12=
EXTT13=
EXTT14=
EXTT15=
EXTT16=
EXTT17=
EXTT18=
EXTT19=
EXTT20=
EXTT21=
EXTT22=
EXTT23=
EXTT24=
EXTT25=
EXTT26=
PLAYORDER=
